mtllib box.mtl
g ceiling[-6570]
v -1.02 1.99 0.99
v 1 1.99 -1.04
v -1.02 1.99 -1.04
v 1 1.99 0.99
vn 0 -1 0
vn 0 -1 0
vn 0 -1 0
vn 0 -1 0
vt 0 0
vt 0 0
vt 0 0
vt 0 0
usemtl ceiling
f 3/3/3 2/2/2 1/1/1
f 2/2/2 4/4/4 1/1/1
g shortBox[-6578]
v -0.53 1.2 0.09
v -0.14 1.2 -0.67
v 0.04 1.2 -0.09
v -0.71 1.2 -0.49
v -0.53 0 0.09
v -0.71 1.2 -0.49
v -0.53 1.2 0.09
v -0.71 0 -0.49
v -0.71 0 -0.49
v -0.14 1.2 -0.67
v -0.71 1.2 -0.49
v -0.14 0 -0.67
v -0.14 0 -0.67
v 0.04 1.2 -0.09
v -0.14 1.2 -0.67
v 0.04 0 -0.09
v 0.04 0 -0.09
v -0.53 1.2 0.09
v 0.04 1.2 -0.09
v -0.53 0 0.09
vn 0 1 0
vn 0 1 0
vn 0 1 0
vn 0 1 0
vn -0.9550641 0 0.2963992
vn -0.9550641 0 0.2963992
vn -0.9550641 0 0.2963992
vn -0.9550641 0 0.2963992
vn -0.3011314 0 -0.9535827
vn -0.3011314 0 -0.9535827
vn -0.3011314 0 -0.9535827
vn -0.3011314 0 -0.9535827
vn 0.9550641 0 -0.2963992
vn 0.9550641 0 -0.2963992
vn 0.9550641 0 -0.2963992
vn 0.9550641 0 -0.2963992
vn 0.3011314 0 0.9535827
vn 0.3011314 0 0.9535827
vn 0.3011314 0 0.9535827
vn 0.3011314 0 0.9535827
vt 0 0
vt 0 0
vt 0 0
vt 0 0
vt 0 0
vt 0 0
vt 0 0
vt 0 0
vt 0 0
vt 0 0
vt 0 0
vt 0 0
vt 0 0
vt 0 0
vt 0 0
vt 0 0
vt 0 0
vt 0 0
vt 0 0
vt 0 0
usemtl tallBox
f 7/7/7 6/6/6 5/5/5
f 6/6/6 8/8/8 5/5/5
f 11/11/11 10/10/10 9/9/9
f 10/10/10 12/12/12 9/9/9
f 15/15/15 14/14/14 13/13/13
f 14/14/14 16/16/16 13/13/13
f 19/19/19 18/18/18 17/17/17
f 18/18/18 20/20/20 17/17/17
f 23/23/23 22/22/22 21/21/21
f 23/23/23 22/22/22 21/21/21
f 22/22/22 24/24/24 21/21/21
f 22/22/22 24/24/24 21/21/21
g floor[-6572]
v -1.01 0 0.99
v 1 0 -1.04
v 1 0 0.99
v -0.99 0 -1.04
vn 0 1 0
vn 0 1 0
vn 0 1 0
vn 0 1 0
vt 0 0
vt 0 0
vt 0 0
vt 0 0
usemtl floor
f 27/27/27 26/26/26 25/25/25
f 26/26/26 28/28/28 25/25/25
g backWall[-6568]
v -0.99 0 -1.04
v 1 1.99 -1.04
v 1 0 -1.04
v -1.02 1.99 -1.04
vn 0 0 1
vn 0 0 1
vn 0 0 1
vn 0 0 1
vt 0 0
vt 0 0
vt 0 0
vt 0 0
usemtl backWall
f 31/31/31 30/30/30 29/29/29
f 30/30/30 32/32/32 29/29/29
g rightWall[-6576]
v 1 0 -1.04
v 1 1.99 0.99
v 1 0 0.99
v 1 1.99 -1.04
vn -1 0 0
vn -1 0 0
vn -1 0 0
vn -1 0 0
vt 0 0
vt 0 0
vt 0 0
vt 0 0
usemtl rightWall
f 35/35/35 34/34/34 33/33/33
f 34/34/34 36/36/36 33/33/33
g leftWall[-6574]
v -1.01 0 0.99
v -1.02 1.99 -1.04
v -0.99 0 -1.04
v -1.02 1.99 0.99
v 0.53 0.6 0.75
v 0.13 0.6 0
v 0.7 0.6 0.17
v -0.05 0.6 0.57
v -0.05 0 0.57
v 0.13 0.6 0
v -0.05 0.6 0.57
v 0.13 0 0
v 0.53 0 0.75
v -0.05 0.6 0.57
v 0.53 0.6 0.75
v -0.05 0 0.57
v 0.7 0 0.17
v 0.53 0.6 0.75
v 0.7 0.6 0.17
v 0.53 0 0.75
v 0.13 0 0
v 0.7 0.6 0.17
v 0.13 0.6 0
v 0.7 0 0.17
vn 0.9999374 0.01004924 0.004925427
vn 0.9999374 0.01004924 0.004925427
vn 0.9998379 0.01507292 0.00985061
vn 0.9999874 0.005025058 0
vn 0 1 0
vn 0 1 0
vn 0 1 0
vn 0 1 0
vn -0.9535827 0 -0.3011314
vn -0.9535827 0 -0.3011314
vn -0.9535827 0 -0.3011314
vn -0.9535827 0 -0.3011314
vn -0.2963993 0 0.9550641
vn -0.2963993 0 0.9550641
vn -0.2963993 0 0.9550641
vn -0.2963993 0 0.9550641
vn 0.9596285 0 0.2812705
vn 0.9596285 0 0.2812705
vn 0.9596285 0 0.2812705
vn 0.9596285 0 0.2812705
vn 0.2858051 0 -0.9582878
vn 0.2858051 0 -0.9582878
vn 0.2858051 0 -0.9582878
vn 0.2858051 0 -0.9582878
vt 0 0
vt 0 0
vt 0 0
vt 0 0
vt 0 0
vt 0 0
vt 0 0
vt 0 0
vt 0 0
vt 0 0
vt 0 0
vt 0 0
vt 0 0
vt 0 0
vt 0 0
vt 0 0
vt 0 0
vt 0 0
vt 0 0
vt 0 0
vt 0 0
vt 0 0
vt 0 0
vt 0 0
usemtl leftWall
f 39/39/39 38/38/38 37/37/37
f 38/38/38 40/40/40 37/37/37
usemtl shortBox
f 43/43/43 42/42/42 41/41/41
f 42/42/42 44/44/44 41/41/41
f 47/47/47 46/46/46 45/45/45
f 46/46/46 48/48/48 45/45/45
f 51/51/51 50/50/50 49/49/49
f 50/50/50 52/52/52 49/49/49
f 55/55/55 54/54/54 53/53/53
f 55/55/55 54/54/54 53/53/53
f 54/54/54 56/56/56 53/53/53
f 54/54/54 56/56/56 53/53/53
f 59/59/59 58/58/58 57/57/57
f 58/58/58 60/60/60 57/57/57
