mtllib voxel.mtl
g x[7164]
v -0.5000001 -0.5 -0.4999999
v -0.4999999 0.5 0.4999999
v -0.4999999 -0.5 0.4999999
v -0.5000001 0.5 -0.4999999
vn -0.9999999 0 1.192093E-07
vn -0.9999999 0 1.192093E-07
vn -0.9999999 0 1.192093E-07
vn -0.9999999 0 1.192093E-07
vt 0 0
vt 1 1
vt 1 0
vt 0 1
usemtl x
f 3/3/3 2/2/2 1/1/1
f 4/4/4 1/1/1 2/2/2
g -x[7192]
v 0.4999999 -0.5 0.4999999
v 0.5000001 0.5 -0.4999999
v 0.5000001 -0.5 -0.4999999
v 0.4999999 0.5 0.4999999
vn 0.9999999 0 1.192093E-07
vn 0.9999999 0 1.192093E-07
vn 0.9999999 0 1.192093E-07
vn 0.9999999 0 1.192093E-07
vt 0 0
vt 1 1
vt 1 0
vt 0 1
usemtl -x
f 7/7/7 6/6/6 5/5/5
f 8/8/8 5/5/5 6/6/6
g -y[7202]
v 0.5 -0.4999999 0.4999999
v -0.5 -0.5000001 -0.4999999
v -0.5 -0.4999999 0.4999999
v 0.5 -0.5000001 -0.4999999
vn 0 -0.9999999 1.192093E-07
vn 0 -0.9999999 1.192093E-07
vn 0 -0.9999999 1.192093E-07
vn 0 -0.9999999 1.192093E-07
vt 0 0
vt 1 1
vt 1 0
vt 0 1
usemtl -y
f 11/11/11 10/10/10 9/9/9
f 12/12/12 9/9/9 10/10/10
g z[7218]
v -0.5 -0.5 0.4999999
v 0.5 0.5 0.5000002
v 0.5 -0.5 0.5000002
v -0.5 0.5 0.4999999
vn -3.258414E-07 0 1
vn -3.258414E-07 0 1
vn -3.258414E-07 0 1
vn -3.258414E-07 0 1
vt 0 0
vt 1 1
vt 1 0
vt 0 1
usemtl z
f 15/15/15 14/14/14 13/13/13
f 16/16/16 13/13/13 14/14/14
g y[7228]
v 0.5 0.5000001 -0.4999999
v -0.5 0.4999999 0.4999999
v -0.5 0.5000001 -0.4999999
v 0.5 0.4999999 0.4999999
vn 0 0.9999999 1.192093E-07
vn 0 0.9999999 1.192093E-07
vn 0 0.9999999 1.192093E-07
vn 0 0.9999999 1.192093E-07
vt 0 0
vt 1 1
vt 1 0
vt 0 1
usemtl y
f 19/19/19 18/18/18 17/17/17
f 20/20/20 17/17/17 18/18/18
g -z[7238]
v 0.5 -0.5 -0.5
v -0.5 0.5 -0.5
v -0.5 -0.5 -0.5
v 0.5 0.5 -0.5
vn 0 0 -1
vn 0 0 -1
vn 0 0 -1
vn 0 0 -1
vt 0 0
vt 1 1
vt 1 0
vt 0 1
usemtl -z
f 23/23/23 22/22/22 21/21/21
f 24/24/24 21/21/21 22/22/22
